<svg xmlns="http://www.w3.org/2000/svg" fill="none" viewBox="0 0 16 16">
  <path d="M9.333333480718995,0.4848014130697632L8.909069580718995,0.9090693330697632L8.666668880718994,1.1514702030697632L7.818136680718994,2.000002323069763L6.000002380718994,3.8181367730697633L4.909069780718994,4.909069373069763L4.484801580718994,5.333333373069763L5.333333480718994,6.181865073069763L5.757597480718994,5.757597373069763L6.002225380718994,5.5129693730697635Q6.399448880718994,5.902126173069763,6.835733380718994,6.315723273069763L0.6516202707189941,12.497309373069763L3.5001483807189944,15.345837373069763L9.749393980718994,9.099145273069762L10.000080580718993,9.349833873069763L10.848612280718994,8.501302173069764L10.424344580718994,8.077038173069763Q9.527247880718994,7.179941973069763,8.407596580718995,6.143646073069763Q7.564285280718994,5.3631170730697635,6.850798580718994,4.664396173069763L8.666666480718995,2.848528273069763L13.151472080718994,7.333333873069763L10.242402580718995,10.242403373069763L9.818134780718994,10.666667373069764L10.666666480718995,11.515199373069763L11.090930480718994,11.090931273069764L13.999998080718994,8.181864173069762L14.848531080718994,7.333333373069763L15.090931080718994,7.090931273069764L15.515198080718994,6.666666873069763L14.666666080718993,5.818134673069763L14.242402080718994,6.242402873069763L14.000000080718994,6.484805973069763L9.515194380718993,2.0000002430697634L9.757597480718994,1.7575974430697632L10.181865180718994,1.3333333730697632L9.333333480718995,0.4848014130697632ZM8.895271280718994,8.256209773069763Q8.340813180718994,7.719207673069763,7.712720380718994,7.1358045730697635L2.348849830718994,12.497482373069763L3.5003215807189942,13.648954373069763L8.895271280718994,8.256209773069763Z" fill-rule="evenodd" fill="currentColor"/>
</svg>
